<svg width="10" height="13" viewBox="0 0 10 13" fill="none" xmlns="http://www.w3.org/2000/svg">
<path d="M4.95833 12.7525C4.06367 11.9893 3.23439 11.1527 2.47917 10.2514C1.34583 8.89774 6.2255e-07 6.88182 6.2255e-07 4.96082C-0.000490889 3.97975 0.290069 3.02059 0.834908 2.20471C1.37975 1.38884 2.15438 0.752936 3.06076 0.377476C3.96714 0.00201643 4.96453 -0.0961208 5.92671 0.0954845C6.88889 0.28709 7.7726 0.759824 8.466 1.45386C8.92766 1.91347 9.29358 2.46008 9.54259 3.06204C9.79159 3.66401 9.91874 4.30939 9.91667 4.96082C9.91667 6.88182 8.57083 8.89774 7.4375 10.2514C6.68228 11.1527 5.853 11.9893 4.95833 12.7525ZM4.95833 2.83582C4.39475 2.83582 3.85425 3.0597 3.45573 3.45822C3.05722 3.85673 2.83333 4.39724 2.83333 4.96082C2.83333 5.52441 3.05722 6.06491 3.45573 6.46342C3.85425 6.86194 4.39475 7.08582 4.95833 7.08582C5.52192 7.08582 6.06242 6.86194 6.46094 6.46342C6.85945 6.06491 7.08333 5.52441 7.08333 4.96082C7.08333 4.39724 6.85945 3.85673 6.46094 3.45822C6.06242 3.0597 5.52192 2.83582 4.95833 2.83582Z" fill="#EE684A"/>
</svg>
