<svg width="26" height="30" viewBox="0 0 26 30" fill="none" xmlns="http://www.w3.org/2000/svg">
<g filter="url(#filter0_d_116_61)">
<path d="M13 6C12.45 6 11.9792 5.80417 11.5875 5.4125C11.1958 5.02083 11 4.55 11 4C11 3.45 11.1958 2.97917 11.5875 2.5875C11.9792 2.19583 12.45 2 13 2C13.55 2 14.0208 2.19583 14.4125 2.5875C14.8042 2.97917 15 3.45 15 4C15 4.55 14.8042 5.02083 14.4125 5.4125C14.0208 5.80417 13.55 6 13 6ZM10 22V9H4V7H22V9H16V22H14V16H12V22H10Z" fill="#5173E0"/>
</g>
<defs>
<filter id="filter0_d_116_61" x="-3" y="0" width="32" height="32" filterUnits="userSpaceOnUse" color-interpolation-filters="sRGB">
<feFlood flood-opacity="0" result="BackgroundImageFix"/>
<feColorMatrix in="SourceAlpha" type="matrix" values="0 0 0 0 0 0 0 0 0 0 0 0 0 0 0 0 0 0 127 0" result="hardAlpha"/>
<feOffset dy="4"/>
<feGaussianBlur stdDeviation="2"/>
<feComposite in2="hardAlpha" operator="out"/>
<feColorMatrix type="matrix" values="0 0 0 0 0 0 0 0 0 0 0 0 0 0 0 0 0 0 0.25 0"/>
<feBlend mode="normal" in2="BackgroundImageFix" result="effect1_dropShadow_116_61"/>
<feBlend mode="normal" in="SourceGraphic" in2="effect1_dropShadow_116_61" result="shape"/>
</filter>
</defs>
</svg>
