<svg width="20" height="15" viewBox="0 0 20 15" fill="none" xmlns="http://www.w3.org/2000/svg">
<path d="M14.6716 5.5H13.6216C13.3099 4.2925 12.6656 3.19666 11.7622 2.337C10.8587 1.47734 9.73224 0.888326 8.51074 0.636897C7.28925 0.385467 6.02172 0.4817 4.85219 0.91466C3.68265 1.34762 2.65801 2.09995 1.89468 3.08615C1.13136 4.07236 0.659967 5.2529 0.534064 6.49363C0.408162 7.73436 0.6328 8.98553 1.18245 10.105C1.73211 11.2244 2.58474 12.1672 3.64346 12.8263C4.70218 13.4854 5.92454 13.8343 7.17164 13.8333H14.6716C15.7767 13.8333 16.8365 13.3943 17.6179 12.6129C18.3993 11.8315 18.8383 10.7717 18.8383 9.66667C18.8383 8.5616 18.3993 7.50179 17.6179 6.72039C16.8365 5.93899 15.7767 5.5 14.6716 5.5Z" stroke="white" stroke-linecap="round" stroke-linejoin="round"/>
</svg>
