<svg width="15" height="18" viewBox="0 0 15 18" fill="none" xmlns="http://www.w3.org/2000/svg">
<path d="M14 7.25C14 12.5 7.25 17 7.25 17C7.25 17 0.5 12.5 0.5 7.25C0.5 5.45979 1.21116 3.7429 2.47703 2.47703C3.7429 1.21116 5.45979 0.5 7.25 0.5C9.04021 0.5 10.7571 1.21116 12.023 2.47703C13.2888 3.7429 14 5.45979 14 7.25Z" stroke="white" stroke-linecap="round" stroke-linejoin="round"/>
<path d="M7.25 9.5C8.49264 9.5 9.5 8.49264 9.5 7.25C9.5 6.00736 8.49264 5 7.25 5C6.00736 5 5 6.00736 5 7.25C5 8.49264 6.00736 9.5 7.25 9.5Z" stroke="white" stroke-linecap="round" stroke-linejoin="round"/>
</svg>
